<svg width="160" height="160" viewBox="0 0 160 160" fill="none" xmlns="http://www.w3.org/2000/svg" role="img" aria-labelledby="title desc">
  <title id="title">AC Study logo</title>
  <desc id="desc">Circular AC Study logo with a lightbulb and the letters AC.</desc>
  <circle cx="80" cy="80" r="66" fill="#FFFFFF"/>
  <path d="M37 29A66 66 0 0 1 133 122" stroke="#FFF6D8" stroke-width="7" stroke-linecap="square"/>
  <path d="M131 121A66 66 0 0 1 25 49" stroke="#A9A9A9" stroke-width="13" stroke-linecap="square"/>
  <circle cx="54" cy="79" r="17" fill="#FFE66D"/>
  <path d="M45 79C45 74 49 70 54 70C59 70 63 74 63 79C63 84 60 86 58 89C57 91 57 93 57 94H51C51 92 51 90 50 89C48 86 45 84 45 79Z" fill="#FFF8B8"/>
  <circle cx="50" cy="78" r="2.3" fill="#1E1F25"/>
  <circle cx="58" cy="78" r="2.3" fill="#1E1F25"/>
  <path d="M49 85C52 88 56 88 59 85" stroke="#1E1F25" stroke-width="2.2" stroke-linecap="round"/>
  <path d="M50 96H58" stroke="#1E1F25" stroke-width="3" stroke-linecap="round"/>
  <path d="M51 101H57" stroke="#1E1F25" stroke-width="3" stroke-linecap="round"/>
  <path d="M80.4 103L91.8 56H101.6L113 103H103L100.9 93.4H92L89.9 103H80.4ZM93.7 85.4H99.2L96.5 72.4L93.7 85.4Z" fill="#111111"/>
  <path d="M135.5 91.2C132.9 99.6 126.3 104.2 117.8 104.2C104.8 104.2 96.8 94.2 96.8 79.4C96.8 64.8 105 54.8 118.1 54.8C126.7 54.8 133.1 59.2 135.6 67.7L126.7 70.8C125.3 65.9 122.6 63.7 118.3 63.7C111.2 63.7 106.9 69.7 106.9 79.4C106.9 89.3 111.1 95.2 118.3 95.2C122.8 95.2 125.6 92.9 126.9 88L135.5 91.2Z" fill="#111111"/>
  <circle cx="80" cy="80" r="65" stroke="rgba(30,31,37,0.04)" stroke-width="1"/>
</svg>
